<svg width="145" height="52" viewBox="0 0 145 52" fill="none" xmlns="http://www.w3.org/2000/svg">
<g id="_2039692380880">
<path id="Vector" fill-rule="evenodd" clip-rule="evenodd" d="M52.9391 0.748047H27.1357V25.1579H52.9391V0.748047Z" fill="#D20001"/>
<path id="Vector_2" fill-rule="evenodd" clip-rule="evenodd" d="M26.3034 0.748047H0.5V25.1579H26.3034V0.748047Z" fill="#D20001"/>
<path id="Vector_3" fill-rule="evenodd" clip-rule="evenodd" d="M107.042 0.748047H81.239V25.1579H107.042V0.748047Z" fill="#D20001"/>
<path id="Vector_4" fill-rule="evenodd" clip-rule="evenodd" d="M80.407 0.748047H54.6036V25.1579H80.407V0.748047Z" fill="#D20001"/>
<path id="Vector_5" fill-rule="evenodd" clip-rule="evenodd" d="M21.3093 22.6326H17.1475L15.4828 18.424H7.99146L7.15909 22.6326H2.99725L10.4886 4.11475H13.818L21.3093 22.6326ZM14.6504 15.0571L12.1533 8.32335L9.6562 15.0571H14.6504Z" fill="white"/>
<path id="Vector_6" fill-rule="evenodd" clip-rule="evenodd" d="M32.9622 22.6326L29.6328 4.11475H32.9622L35.4593 15.8988L37.9564 4.11475H42.9506L45.4477 15.0571L47.1125 4.11475H51.2743L47.9448 22.6326H43.783L40.4535 9.16507L37.1241 22.6326H32.9622Z" fill="white"/>
<path id="Vector_7" fill-rule="evenodd" clip-rule="evenodd" d="M76.2463 22.6326H72.9169L71.2521 18.424H63.7608L62.0961 22.6326H58.7666L65.4255 4.11475H69.5874L76.2463 22.6326ZM69.5874 15.0571L67.0903 8.32335L64.5932 15.0571H69.5874Z" fill="white"/>
<path id="Vector_8" fill-rule="evenodd" clip-rule="evenodd" d="M87.066 22.6326V19.2657L96.2221 7.48163H87.8984V4.11475H101.216V6.63991L91.2279 19.2657H102.049V22.6326H87.066Z" fill="white"/>
<path id="Vector_9" fill-rule="evenodd" clip-rule="evenodd" d="M111.205 0.748047C111.205 0.748047 123.69 9.16525 117.031 27.6831C117.031 27.6831 110.372 45.3592 88.7308 51.2512C88.7308 51.2512 107.043 51.2512 119.528 36.942C130.349 25.9996 126.187 13.3738 126.187 13.3738C126.187 13.3738 123.69 3.27321 111.205 0.748047Z" fill="#D20001"/>
<path id="Vector_10" fill-rule="evenodd" clip-rule="evenodd" d="M144.5 13.3738C144.5 13.3738 144.5 15.0573 144.5 17.5824V18.4242C144.5 23.4745 142.835 30.2082 137.009 36.942C125.355 51.2512 107.043 51.2512 106.211 51.2512C127.853 45.3592 134.512 27.6831 134.512 27.6831C141.17 9.16525 128.685 0.748047 128.685 0.748047C141.17 3.27321 144.5 13.3738 144.5 13.3738Z" fill="#D20001"/>
<path id="Vector_11" fill-rule="evenodd" clip-rule="evenodd" d="M130.349 47.8843C134.511 47.8843 137.841 43.6757 137.841 39.4671C137.841 35.2585 134.511 31.8916 130.349 31.8916C126.188 31.8916 122.858 35.2585 122.858 39.4671C122.858 43.6757 126.188 47.8843 130.349 47.8843Z" fill="white"/>
<path id="Vector_12" fill-rule="evenodd" clip-rule="evenodd" d="M130.349 47.0431C134.511 47.0431 137.008 43.6762 137.008 39.4676C137.008 36.1008 134.511 32.7339 130.349 32.7339C126.188 32.7339 122.858 36.1008 122.858 39.4676C122.858 43.6762 126.188 47.0431 130.349 47.0431Z" fill="#0071F1"/>
<path id="Vector_13" fill-rule="evenodd" clip-rule="evenodd" d="M50.4413 36.9421V30.2083H47.9442V28.5249H54.6031V30.2083H52.106V36.9421H50.4413Z" fill="#0071F1"/>
<path id="Vector_14" fill-rule="evenodd" clip-rule="evenodd" d="M55.437 36.9421V28.5249H57.1017V31.8918H59.5988V28.5249H61.2635V36.9421H59.5988V33.5752H57.1017V36.9421H55.437Z" fill="#0071F1"/>
<path id="Vector_15" fill-rule="evenodd" clip-rule="evenodd" d="M62.9275 36.9421V28.5249H68.7541V30.2083H64.5922V31.8918H68.7541V33.5752H64.5922V35.2587H68.7541V36.9421H62.9275Z" fill="#0071F1"/>
<path id="Vector_16" fill-rule="evenodd" clip-rule="evenodd" d="M75.4131 36.9421L72.916 28.5249H74.5807L76.2454 34.4169L77.9102 28.5249H79.5749L77.0778 36.9421H75.4131Z" fill="#0071F1"/>
<path id="Vector_17" fill-rule="evenodd" clip-rule="evenodd" d="M80.4095 32.7335C80.4095 31.8918 80.4095 31.8918 80.4095 31.0501C81.2419 30.2083 81.2419 30.2083 81.2419 30.2083C82.0742 29.3666 82.0742 29.3666 82.9066 29.3666C82.9066 28.5249 83.739 28.5249 84.5713 28.5249C84.5713 28.5249 85.4037 28.5249 85.4037 29.3666C86.2361 29.3666 86.2361 29.3666 87.0684 30.2083C87.9008 31.0501 87.9008 31.8918 87.9008 32.7335C87.9008 34.4169 87.9008 35.2587 87.0684 36.1004C86.2361 36.1004 86.2361 36.9421 85.4037 36.9421H84.5713C83.739 36.9421 82.9066 36.9421 82.9066 36.9421C82.0742 36.9421 82.0742 36.1004 81.2419 36.1004C81.2419 35.2587 81.2419 35.2587 80.4095 34.4169C80.4095 34.4169 80.4095 33.5752 80.4095 32.7335ZM82.0742 32.7335C82.0742 33.5752 82.0742 34.4169 82.9066 35.2587C82.9066 35.2587 82.9066 35.2587 83.739 35.2587C83.739 35.2587 83.739 35.2587 84.5713 35.2587C84.5713 35.2587 84.5713 35.2587 85.4037 35.2587C86.2361 34.4169 86.2361 33.5752 86.2361 32.7335C86.2361 31.8918 86.2361 31.0501 85.4037 31.0501C85.4037 30.2083 85.4037 30.2083 85.4037 30.2083C84.5713 30.2083 84.5713 30.2083 84.5713 30.2083C83.739 30.2083 83.739 30.2083 83.739 30.2083C82.9066 30.2083 82.9066 30.2083 82.9066 31.0501C82.0742 31.0501 82.0742 31.8918 82.0742 32.7335Z" fill="#0071F1"/>
<path id="Vector_18" fill-rule="evenodd" clip-rule="evenodd" d="M89.564 36.9421V28.5249H90.3963V36.9421H89.564Z" fill="#0071F1"/>
<path id="Vector_19" fill-rule="evenodd" clip-rule="evenodd" d="M97.0544 33.5752L98.7192 34.4169C98.7192 35.2587 97.8868 36.1004 97.8868 36.1004C97.0544 36.9421 96.2221 36.9421 95.3897 36.9421H94.5573C93.725 36.9421 93.725 36.1004 92.8926 36.1004C92.0602 35.2587 92.0602 34.4169 92.0602 32.7335C92.0602 31.8918 92.0602 31.0501 92.8926 30.2083C93.725 29.3666 93.725 29.3666 94.5573 29.3666C94.5573 28.5249 95.3897 28.5249 95.3897 28.5249C96.2221 28.5249 97.0544 29.3666 97.8868 29.3666C98.7192 30.2083 98.7192 30.2083 98.7192 31.0501H97.0544C97.0544 31.0501 97.0544 31.0501 97.0544 30.2083C96.2221 30.2083 96.2221 30.2083 95.3897 30.2083C95.3897 30.2083 95.3897 30.2083 94.5573 30.2083C94.5573 30.2083 94.5573 30.2083 94.5573 31.0501C93.725 31.0501 93.725 31.8918 93.725 32.7335C93.725 33.5752 93.725 34.4169 94.5573 35.2587C95.3897 35.2587 95.3897 35.2587 95.3897 35.2587C96.2221 35.2587 96.2221 35.2587 97.0544 35.2587C97.0544 35.2587 97.0544 34.4169 97.0544 33.5752Z" fill="#0071F1"/>
<path id="Vector_20" fill-rule="evenodd" clip-rule="evenodd" d="M100.383 36.9421V28.5249H106.21V30.2083H102.048V31.8918H105.377V33.5752H102.048V35.2587H106.21V36.9421H100.383Z" fill="#0071F1"/>
</g>
</svg>
